<svg width="18" height="18" viewBox="0 0 18 18" fill="none" xmlns="http://www.w3.org/2000/svg">
<path d="M2.13379 17.8408C1.46973 17.8408 0.966146 17.6637 0.623047 17.3096C0.285482 16.9609 0.116699 16.4242 0.116699 15.6992V9.53174C0.116699 8.81787 0.285482 8.28662 0.623047 7.93799C0.966146 7.58382 1.46973 7.40674 2.13379 7.40674H10.2271C10.8911 7.40674 11.3919 7.58382 11.7295 7.93799C12.0726 8.28662 12.2441 8.81787 12.2441 9.53174V15.6992C12.2441 16.4242 12.0726 16.9609 11.7295 17.3096C11.3919 17.6637 10.8911 17.8408 10.2271 17.8408H2.13379ZM2.71484 15.9399H9.646C9.81201 15.9399 9.93652 15.8929 10.0195 15.7988C10.1025 15.7103 10.144 15.5719 10.144 15.3838V9.85547C10.144 9.66732 10.1025 9.52897 10.0195 9.44043C9.93652 9.35189 9.81201 9.30762 9.646 9.30762H2.71484C2.55436 9.30762 2.42985 9.35189 2.34131 9.44043C2.2583 9.52897 2.2168 9.66732 2.2168 9.85547V15.3838C2.2168 15.5719 2.2583 15.7103 2.34131 15.7988C2.42985 15.8929 2.55436 15.9399 2.71484 15.9399ZM8.6748 8.22021V5.60547C8.6748 4.80306 8.79655 4.10579 9.04004 3.51367C9.28906 2.92155 9.62386 2.42904 10.0444 2.03613C10.4705 1.6377 10.9465 1.34163 11.4722 1.14795C12.0034 0.954264 12.5485 0.857422 13.1074 0.857422C13.6719 0.857422 14.217 0.954264 14.7427 1.14795C15.2739 1.34163 15.7498 1.6377 16.1704 2.03613C16.591 2.42904 16.9258 2.92155 17.1748 3.51367C17.4238 4.10579 17.5483 4.80306 17.5483 5.60547V7.08301C17.5483 7.45931 17.4515 7.74154 17.2578 7.92969C17.0697 8.11784 16.8372 8.21191 16.5605 8.21191C16.2728 8.21191 16.0348 8.11507 15.8467 7.92139C15.6585 7.7277 15.5645 7.44824 15.5645 7.08301V5.47266C15.5645 4.90267 15.4538 4.41846 15.2324 4.02002C15.0111 3.61605 14.715 3.30892 14.3442 3.09863C13.979 2.88281 13.5667 2.7749 13.1074 2.7749C12.6536 2.7749 12.2414 2.88281 11.8706 3.09863C11.4998 3.30892 11.2038 3.61605 10.9824 4.02002C10.7666 4.41846 10.6587 4.90267 10.6587 5.47266V8.22021H8.6748Z" fill="#CECECE"/>
</svg>
