<svg width="18" height="19" viewBox="0 0 18 19" fill="none" xmlns="http://www.w3.org/2000/svg">
<path d="M4.3418 18.3115C3.5918 18.3115 3.01465 18.1123 2.61035 17.7139C2.20605 17.3213 2.00391 16.7529 2.00391 16.0088V10.1992H1.85449C1.47949 10.1465 1.18652 9.98535 0.975586 9.71582C0.770508 9.44043 0.667969 9.09473 0.667969 8.67871V6.53418C0.667969 6.05957 0.802734 5.68164 1.07227 5.40039C1.3418 5.11328 1.70801 4.96973 2.1709 4.96973H4.37695C4.10156 4.74121 3.88477 4.46289 3.72656 4.13477C3.57422 3.80664 3.49805 3.44336 3.49805 3.04492C3.49805 2.51758 3.62109 2.05176 3.86719 1.64746C4.11914 1.24316 4.45605 0.929687 4.87793 0.707031C5.30566 0.478516 5.78906 0.364258 6.32812 0.364258C6.95508 0.364258 7.50293 0.53418 7.97168 0.874023C8.44043 1.20801 8.78027 1.67676 8.99121 2.28027C9.19629 1.67676 9.5332 1.20801 10.002 0.874023C10.4766 0.53418 11.0273 0.364258 11.6543 0.364258C12.1934 0.364258 12.6738 0.478516 13.0957 0.707031C13.5234 0.929687 13.8604 1.24316 14.1064 1.64746C14.3584 2.05176 14.4844 2.51758 14.4844 3.04492C14.4844 3.44336 14.4082 3.80664 14.2559 4.13477C14.1035 4.46289 13.8896 4.74121 13.6143 4.96973H15.8203C16.2949 4.96973 16.6641 5.11328 16.9277 5.40039C17.1914 5.68164 17.3232 6.05957 17.3232 6.53418V8.67871C17.3232 9.09473 17.2178 9.44043 17.0068 9.71582C16.7959 9.98535 16.5029 10.1465 16.1279 10.1992H15.9785V16.0088C15.9785 16.7529 15.7734 17.3213 15.3633 17.7139C14.959 18.1123 14.3877 18.3115 13.6494 18.3115H4.3418ZM8.28809 17.3008V10.2432H3.08496V16.0527C3.08496 16.4512 3.19336 16.7588 3.41016 16.9756C3.62695 17.1924 3.93457 17.3008 4.33301 17.3008H8.28809ZM9.69434 17.3008H13.6494C14.0537 17.3008 14.3613 17.1924 14.5723 16.9756C14.7891 16.7588 14.8975 16.4512 14.8975 16.0527V10.2432H9.69434V17.3008ZM8.28809 9.21484V5.98926H2.4082C2.17969 5.98926 2.0127 6.04492 1.90723 6.15625C1.80176 6.26758 1.74902 6.4375 1.74902 6.66602V8.54688C1.74902 8.76953 1.80176 8.93652 1.90723 9.04785C2.0127 9.15918 2.17969 9.21484 2.4082 9.21484H8.28809ZM9.69434 9.21484H15.5918C15.8086 9.21484 15.9697 9.15918 16.0752 9.04785C16.1807 8.93652 16.2334 8.76953 16.2334 8.54688V6.66602C16.2334 6.4375 16.1807 6.26758 16.0752 6.15625C15.9697 6.04492 15.8086 5.98926 15.5918 5.98926H9.69434V9.21484ZM8.34961 4.96973V3.88867C8.34961 3.19141 8.16211 2.64062 7.78711 2.23633C7.41211 1.82617 6.94336 1.62109 6.38086 1.62109C5.91211 1.62109 5.52539 1.75293 5.2207 2.0166C4.92188 2.27441 4.77246 2.63477 4.77246 3.09766C4.77246 3.63086 4.9834 4.07617 5.40527 4.43359C5.82715 4.79102 6.4043 4.96973 7.13672 4.96973H8.34961ZM9.63281 4.96973H10.8457C11.5781 4.96973 12.1553 4.79102 12.5771 4.43359C12.999 4.07617 13.21 3.63086 13.21 3.09766C13.21 2.63477 13.0576 2.27441 12.7529 2.0166C12.4541 1.75293 12.0703 1.62109 11.6016 1.62109C11.0391 1.62109 10.5703 1.82617 10.1953 2.23633C9.82031 2.64062 9.63281 3.19141 9.63281 3.88867V4.96973Z" fill="black"/>
</svg>
