<svg width="23" height="20" viewBox="0 0 23 20" fill="none" xmlns="http://www.w3.org/2000/svg">
<path d="M0.112793 10.1865C0.112793 9.87728 0.238932 9.60465 0.491211 9.36865L8.57227 1.2998C8.70247 1.1696 8.83268 1.07601 8.96289 1.01904C9.10124 0.962077 9.24365 0.933594 9.39014 0.933594C9.69124 0.933594 9.94352 1.03532 10.147 1.23877C10.3586 1.43408 10.4644 1.68229 10.4644 1.9834C10.4644 2.12988 10.4359 2.2723 10.3789 2.41064C10.3301 2.54085 10.2568 2.65479 10.1592 2.75244L7.4248 5.53564L2.59082 9.95459L2.33447 9.34424L6.26514 9.1001H21.707C22.0244 9.1001 22.2808 9.20182 22.4761 9.40527C22.6795 9.60872 22.7812 9.86914 22.7812 10.1865C22.7812 10.5039 22.6795 10.7643 22.4761 10.9678C22.2808 11.1712 22.0244 11.2729 21.707 11.2729H6.26514L2.33447 11.0288L2.59082 10.4307L7.4248 14.8374L10.1592 17.6206C10.2568 17.7183 10.3301 17.8363 10.3789 17.9746C10.4359 18.1048 10.4644 18.2432 10.4644 18.3896C10.4644 18.6908 10.3586 18.939 10.147 19.1343C9.94352 19.3377 9.69124 19.4395 9.39014 19.4395C9.09717 19.4395 8.83268 19.3255 8.59668 19.0977L0.491211 11.0044C0.238932 10.7684 0.112793 10.4958 0.112793 10.1865Z" fill="white"/>
</svg>
