<svg width="25" height="20" viewBox="0 0 25 20" fill="none" xmlns="http://www.w3.org/2000/svg">
<path d="M3.36133 17.8066C2.41081 17.8066 1.69466 17.5658 1.21289 17.084C0.73112 16.6087 0.490234 15.8991 0.490234 14.9551V2.98242C0.490234 2.03841 0.73112 1.32878 1.21289 0.853516C1.69466 0.371745 2.41081 0.130859 3.36133 0.130859H16.9551C17.9121 0.130859 18.6283 0.371745 19.1035 0.853516C19.5853 1.32878 19.8262 2.03841 19.8262 2.98242V8.87109C19.735 8.85807 19.6406 8.85156 19.543 8.85156C19.4453 8.84505 19.3477 8.8418 19.25 8.8418C19.1523 8.8418 19.0547 8.84505 18.957 8.85156C18.8594 8.85807 18.7487 8.86784 18.625 8.88086V6.06836C18.625 5.54102 18.485 5.14388 18.2051 4.87695C17.9316 4.60352 17.541 4.4668 17.0332 4.4668H3.2832C2.76888 4.4668 2.375 4.60352 2.10156 4.87695C1.82812 5.14388 1.69141 5.54102 1.69141 6.06836V15.0039C1.69141 15.5312 1.82812 15.9284 2.10156 16.1953C2.375 16.4688 2.76888 16.6055 3.2832 16.6055H13.5469C13.6055 16.8203 13.6771 17.0254 13.7617 17.2207C13.8464 17.4225 13.944 17.6178 14.0547 17.8066H3.36133ZM8.21484 7.93359C8.0651 7.93359 7.96094 7.91081 7.90234 7.86523C7.85026 7.81315 7.82422 7.71224 7.82422 7.5625V6.98633C7.82422 6.83659 7.85026 6.73568 7.90234 6.68359C7.96094 6.63151 8.0651 6.60547 8.21484 6.60547H8.79102C8.94076 6.60547 9.04167 6.63151 9.09375 6.68359C9.15234 6.73568 9.18164 6.83659 9.18164 6.98633V7.5625C9.18164 7.71224 9.15234 7.81315 9.09375 7.86523C9.04167 7.91081 8.94076 7.93359 8.79102 7.93359H8.21484ZM11.5352 7.93359C11.3789 7.93359 11.2747 7.91081 11.2227 7.86523C11.1706 7.81315 11.1445 7.71224 11.1445 7.5625V6.98633C11.1445 6.83659 11.1706 6.73568 11.2227 6.68359C11.2747 6.63151 11.3789 6.60547 11.5352 6.60547H12.1016C12.2578 6.60547 12.362 6.63151 12.4141 6.68359C12.4661 6.73568 12.4922 6.83659 12.4922 6.98633V7.5625C12.4922 7.71224 12.4661 7.81315 12.4141 7.86523C12.362 7.91081 12.2578 7.93359 12.1016 7.93359H11.5352ZM14.8457 7.93359C14.6895 7.93359 14.5853 7.91081 14.5332 7.86523C14.4811 7.81315 14.4551 7.71224 14.4551 7.5625V6.98633C14.4551 6.83659 14.4811 6.73568 14.5332 6.68359C14.5853 6.63151 14.6895 6.60547 14.8457 6.60547H15.4219C15.5716 6.60547 15.6725 6.63151 15.7246 6.68359C15.7767 6.73568 15.8027 6.83659 15.8027 6.98633V7.5625C15.8027 7.71224 15.7767 7.81315 15.7246 7.86523C15.6725 7.91081 15.5716 7.93359 15.4219 7.93359H14.8457ZM4.9043 11.1953C4.74805 11.1953 4.64388 11.1725 4.5918 11.127C4.53971 11.0749 4.51367 10.974 4.51367 10.8242V10.248C4.51367 10.0983 4.53971 10.0007 4.5918 9.95508C4.64388 9.90299 4.74805 9.87695 4.9043 9.87695H5.48047C5.63021 9.87695 5.73112 9.90299 5.7832 9.95508C5.83529 10.0007 5.86133 10.0983 5.86133 10.248V10.8242C5.86133 10.974 5.83529 11.0749 5.7832 11.127C5.73112 11.1725 5.63021 11.1953 5.48047 11.1953H4.9043ZM8.21484 11.1953C8.0651 11.1953 7.96094 11.1725 7.90234 11.127C7.85026 11.0749 7.82422 10.974 7.82422 10.8242V10.248C7.82422 10.0983 7.85026 10.0007 7.90234 9.95508C7.96094 9.90299 8.0651 9.87695 8.21484 9.87695H8.79102C8.94076 9.87695 9.04167 9.90299 9.09375 9.95508C9.15234 10.0007 9.18164 10.0983 9.18164 10.248V10.8242C9.18164 10.974 9.15234 11.0749 9.09375 11.127C9.04167 11.1725 8.94076 11.1953 8.79102 11.1953H8.21484ZM11.5352 11.1953C11.3789 11.1953 11.2747 11.1725 11.2227 11.127C11.1706 11.0749 11.1445 10.974 11.1445 10.8242V10.248C11.1445 10.0983 11.1706 10.0007 11.2227 9.95508C11.2747 9.90299 11.3789 9.87695 11.5352 9.87695H12.1016C12.2578 9.87695 12.362 9.90299 12.4141 9.95508C12.4661 10.0007 12.4922 10.0983 12.4922 10.248V10.8242C12.4922 10.974 12.4661 11.0749 12.4141 11.127C12.362 11.1725 12.2578 11.1953 12.1016 11.1953H11.5352ZM4.9043 14.4668C4.74805 14.4668 4.64388 14.4408 4.5918 14.3887C4.53971 14.3366 4.51367 14.2357 4.51367 14.0859V13.5098C4.51367 13.36 4.53971 13.2624 4.5918 13.2168C4.64388 13.1647 4.74805 13.1387 4.9043 13.1387H5.48047C5.63021 13.1387 5.73112 13.1647 5.7832 13.2168C5.83529 13.2624 5.86133 13.36 5.86133 13.5098V14.0859C5.86133 14.2357 5.83529 14.3366 5.7832 14.3887C5.73112 14.4408 5.63021 14.4668 5.48047 14.4668H4.9043ZM8.21484 14.4668C8.0651 14.4668 7.96094 14.4408 7.90234 14.3887C7.85026 14.3366 7.82422 14.2357 7.82422 14.0859V13.5098C7.82422 13.36 7.85026 13.2624 7.90234 13.2168C7.96094 13.1647 8.0651 13.1387 8.21484 13.1387H8.79102C8.94076 13.1387 9.04167 13.1647 9.09375 13.2168C9.15234 13.2624 9.18164 13.36 9.18164 13.5098V14.0859C9.18164 14.2357 9.15234 14.3366 9.09375 14.3887C9.04167 14.4408 8.94076 14.4668 8.79102 14.4668H8.21484ZM11.5352 14.4668C11.3789 14.4668 11.2747 14.4408 11.2227 14.3887C11.1706 14.3366 11.1445 14.2357 11.1445 14.0859V13.5098C11.1445 13.36 11.1706 13.2624 11.2227 13.2168C11.2747 13.1647 11.3789 13.1387 11.5352 13.1387H12.1016C12.2578 13.1387 12.362 13.1647 12.4141 13.2168C12.4661 13.2624 12.4922 13.36 12.4922 13.5098V14.0859C12.4922 14.2357 12.4661 14.3366 12.4141 14.3887C12.362 14.4408 12.2578 14.4668 12.1016 14.4668H11.5352ZM19.2402 19.6816C18.5762 19.6816 17.9512 19.5547 17.3652 19.3008C16.7793 19.0534 16.2617 18.7051 15.8125 18.2559C15.3698 17.8132 15.0215 17.2956 14.7676 16.7031C14.5137 16.1172 14.3867 15.4922 14.3867 14.8281C14.3867 14.1641 14.5137 13.5391 14.7676 12.9531C15.0215 12.3672 15.3698 11.8496 15.8125 11.4004C16.2617 10.9512 16.7793 10.6029 17.3652 10.3555C17.9512 10.1016 18.5762 9.97461 19.2402 9.97461C19.9108 9.97461 20.5391 10.1016 21.125 10.3555C21.7109 10.6029 22.2253 10.9512 22.668 11.4004C23.1172 11.8431 23.4655 12.3574 23.7129 12.9434C23.9668 13.5293 24.0938 14.1576 24.0938 14.8281C24.0938 15.4922 23.9668 16.1172 23.7129 16.7031C23.459 17.2891 23.1074 17.8034 22.6582 18.2461C22.209 18.6953 21.6914 19.0469 21.1055 19.3008C20.5195 19.5547 19.8978 19.6816 19.2402 19.6816ZM16.877 15.5605H19.2793C19.4225 15.5605 19.543 15.5085 19.6406 15.4043C19.7448 15.3001 19.7969 15.1732 19.7969 15.0234V11.8691C19.7969 11.7259 19.7448 11.6055 19.6406 11.5078C19.543 11.4102 19.4225 11.3613 19.2793 11.3613C19.1296 11.3613 19.0026 11.4102 18.8984 11.5078C18.8008 11.6055 18.752 11.7259 18.752 11.8691V14.5059H16.877C16.7337 14.5059 16.61 14.5579 16.5059 14.6621C16.4017 14.7663 16.3496 14.8867 16.3496 15.0234C16.3496 15.1732 16.3984 15.3001 16.4961 15.4043C16.6003 15.5085 16.7272 15.5605 16.877 15.5605Z" fill="#B3B3B3"/>
</svg>
