<svg width="66" height="66" viewBox="0 0 66 66" fill="none" xmlns="http://www.w3.org/2000/svg">
<g style="mix-blend-mode:multiply" opacity="0.602744">
<path fill-rule="evenodd" clip-rule="evenodd" d="M39.2887 11.0981L39.8075 11.2892L39.7311 11.497C39.8695 11.4293 39.9809 11.3895 40.0653 11.379C40.1544 11.3682 40.2561 11.3837 40.37 11.4255C40.6235 11.5191 40.7836 11.7038 40.8496 11.9796C41.094 11.818 41.3553 11.7887 41.6334 11.8911C42.139 12.0777 42.2791 12.4773 42.0532 13.091L41.5416 14.4787L41.0207 14.2867L41.4802 13.0393C41.5596 12.8242 41.5894 12.6624 41.57 12.5542C41.5496 12.4434 41.4781 12.3655 41.355 12.3202C41.2119 12.2678 41.0882 12.2832 40.9831 12.3667C40.8779 12.4501 40.7818 12.6113 40.694 12.8494L40.2669 14.0091L39.7456 13.8172L40.2028 12.5764C40.3495 12.1768 40.3082 11.9346 40.0778 11.8498C39.9315 11.7958 39.8051 11.8114 39.6978 11.8958C39.5909 11.98 39.4941 12.14 39.4075 12.375L38.9804 13.5351L38.4616 13.3437L39.2887 11.0981Z" fill="black"/>
<path fill-rule="evenodd" clip-rule="evenodd" d="M43.9519 11.9601C43.998 11.8753 44.0685 11.8186 44.1643 11.79C44.2596 11.7618 44.3505 11.7709 44.4374 11.818C44.5249 11.8654 44.5827 11.937 44.6114 12.0328C44.6406 12.1265 44.631 12.2174 44.5837 12.3054C44.5359 12.3929 44.4643 12.4512 44.3691 12.4798C44.2749 12.5091 44.1839 12.4995 44.096 12.4522C44.0084 12.4044 43.9501 12.3329 43.922 12.2375C43.8933 12.1417 43.9035 12.0497 43.9519 11.9601ZM44.0374 13.1381L42.8969 15.2423L42.4107 14.979L43.5513 12.8747L44.0374 13.1381Z" fill="black"/>
<path fill-rule="evenodd" clip-rule="evenodd" d="M46.0567 14.8974L45.5418 14.8431C45.5648 14.6805 45.5316 14.5693 45.4438 14.5103C45.4019 14.4814 45.3564 14.4713 45.3074 14.4788C45.2589 14.4863 45.2198 14.5122 45.1909 14.5555C45.1393 14.6313 45.1766 14.7663 45.3026 14.9602C45.475 15.2289 45.5734 15.4358 45.598 15.5808C45.6221 15.726 45.5843 15.8732 45.4835 16.0223C45.354 16.2137 45.1753 16.3263 44.9468 16.3598C44.7273 16.3894 44.5203 16.3386 44.3261 16.2073C43.994 15.9826 43.8677 15.6615 43.9486 15.2433L44.4622 15.3261C44.4522 15.458 44.453 15.5466 44.4638 15.5915C44.4844 15.6806 44.5336 15.7514 44.6109 15.8035C44.7656 15.9082 44.891 15.8901 44.9861 15.7489C45.041 15.6676 45.0329 15.5512 44.9609 15.3997C44.9304 15.3452 44.8993 15.2919 44.8679 15.239C44.8364 15.1862 44.8047 15.132 44.7732 15.0768C44.6839 14.9219 44.6345 14.7934 44.6241 14.6915C44.6107 14.5622 44.6482 14.432 44.736 14.3018C44.8526 14.1294 45.0082 14.0268 45.2025 13.9937C45.3991 13.9628 45.5841 14.0056 45.7561 14.1222C46.0102 14.2936 46.1103 14.5522 46.0567 14.8974Z" fill="black"/>
<path fill-rule="evenodd" clip-rule="evenodd" d="M48.0699 16.5396L47.5648 16.4257C47.6065 16.2668 47.5868 16.153 47.5059 16.0834C47.4678 16.0504 47.4238 16.0347 47.3749 16.0366C47.3256 16.0386 47.284 16.0595 47.2494 16.099C47.1899 16.1686 47.211 16.3069 47.3138 16.5142C47.4538 16.8011 47.5273 17.0179 47.535 17.165C47.5426 17.3121 47.4876 17.4539 47.3698 17.5905C47.219 17.7652 47.0283 17.8562 46.7979 17.8629C46.5762 17.8666 46.3764 17.7921 46.1993 17.6391C45.8952 17.3774 45.8073 17.0436 45.9363 16.6383L46.4362 16.7801C46.4112 16.9099 46.4014 16.9976 46.4069 17.0437C46.4176 17.1347 46.4582 17.2108 46.5285 17.2715C46.6703 17.3933 46.7967 17.3899 46.9077 17.2605C46.9717 17.1861 46.9772 17.0694 46.9232 16.9109C46.8996 16.8534 46.8748 16.7967 46.8496 16.7406C46.8245 16.6844 46.7995 16.6273 46.7742 16.5683C46.7039 16.4042 46.6694 16.2709 46.671 16.1682C46.6729 16.0381 46.7253 15.9134 46.8279 15.7944C46.9634 15.6368 47.1294 15.5529 47.3266 15.5426C47.5253 15.5348 47.7039 15.5987 47.8616 15.7346C48.0941 15.9345 48.163 16.2026 48.0699 16.5396Z" fill="black"/>
<path fill-rule="evenodd" clip-rule="evenodd" d="M49.8578 16.3348C49.9278 16.268 50.0124 16.2357 50.112 16.2381C50.2116 16.2405 50.2951 16.277 50.3632 16.3482C50.432 16.4206 50.4655 16.5067 50.4631 16.6059C50.4619 16.7043 50.4254 16.7883 50.353 16.8571C50.2807 16.9264 50.195 16.9598 50.0953 16.957C49.997 16.9562 49.9133 16.9192 49.8441 16.8469C49.7753 16.775 49.7418 16.6888 49.7442 16.5892C49.7465 16.4896 49.7842 16.4048 49.8578 16.3348ZM49.5782 17.4821L47.8475 19.1352L47.4655 18.7351L49.1962 17.0824L49.5782 17.4821Z" fill="black"/>
<path fill-rule="evenodd" clip-rule="evenodd" d="M50.4531 18.441L50.7877 18.884L50.6111 19.0177C50.8806 19.0564 51.0886 19.1723 51.2347 19.3658C51.4024 19.5881 51.4635 19.8139 51.4175 20.0438C51.3794 20.2409 51.2256 20.4412 50.9565 20.6441L49.786 21.5285L49.4513 21.0855L50.5179 20.2797C50.7062 20.1376 50.816 20.0132 50.8487 19.9066C50.8833 19.8004 50.8498 19.6795 50.7479 19.5453C50.6376 19.3989 50.5107 19.3315 50.3678 19.3429C50.2265 19.3549 50.0374 19.4511 49.7995 19.6305L48.878 20.3268L48.5432 19.8834L50.4531 18.441Z" fill="black"/>
<path fill-rule="evenodd" clip-rule="evenodd" d="M52.2179 23.3695C52.4231 23.2601 52.5579 23.1178 52.6226 22.9427C52.689 22.7645 52.6761 22.5886 52.5839 22.415C52.4853 22.2298 52.3393 22.1203 52.1446 22.0864C51.9702 22.0548 51.7856 22.0909 51.5903 22.1946C51.398 22.2972 51.2661 22.4296 51.1946 22.5916C51.1162 22.7689 51.1267 22.9505 51.2258 23.1375C51.3251 23.324 51.4715 23.4352 51.6653 23.4713C51.8413 23.5057 52.0255 23.4717 52.2179 23.3695ZM51.4641 24.3712C51.3646 24.4242 51.275 24.4674 51.1956 24.5017C51.1161 24.5356 51.0447 24.5619 50.9806 24.5814C50.803 24.6313 50.6303 24.636 50.4618 24.5955C50.1404 24.5214 49.891 24.3174 49.7134 23.9833C49.5633 23.701 49.5159 23.4289 49.5707 23.166C49.6269 22.8948 49.7856 22.6713 50.0464 22.4951L50.307 22.9856C50.2128 23.0595 50.1491 23.1334 50.1159 23.2072C50.0381 23.3783 50.0511 23.5607 50.154 23.7543C50.344 24.1119 50.6579 24.1737 51.0962 23.9411L51.3913 23.7837C51.0898 23.6956 50.8724 23.5246 50.7373 23.2713C50.5841 22.9837 50.5634 22.6926 50.6738 22.3981C50.7864 22.1008 51.0012 21.8681 51.3176 21.6992C51.6259 21.5356 51.9333 21.4824 52.2405 21.5397C52.5674 21.6036 52.8117 21.7872 52.9733 22.0907C53.1146 22.3567 53.1332 22.6308 53.0293 22.9126L53.2676 22.7857L53.5272 23.2737L51.4641 24.3712Z" fill="black"/>
<path fill-rule="evenodd" clip-rule="evenodd" d="M54.6838 27.9649L54.333 27.5844C54.4576 27.4772 54.5065 27.372 54.4795 27.2693C54.4668 27.2201 54.4397 27.1822 54.398 27.1562C54.3567 27.1296 54.3104 27.1224 54.2596 27.136C54.171 27.1593 54.1095 27.2852 54.0764 27.514C54.0282 27.8299 53.9654 28.05 53.8882 28.1753C53.8105 28.3003 53.6846 28.3853 53.5102 28.4312C53.2869 28.4893 53.0783 28.4558 52.8849 28.33C52.7001 28.2069 52.5786 28.0321 52.5197 27.8058C52.4183 27.4174 52.5359 27.0926 52.8729 26.8322L53.2037 27.2338C53.109 27.3261 53.0512 27.3929 53.0297 27.4341C52.9863 27.5145 52.9765 27.6003 52.9998 27.6907C53.047 27.8709 53.1531 27.9399 53.3179 27.8971C53.4131 27.8723 53.4837 27.7795 53.5295 27.6182C53.5427 27.5574 53.5545 27.4965 53.5659 27.4361C53.5773 27.3757 53.589 27.3143 53.6017 27.2518C53.6374 27.0768 53.685 26.9475 53.7446 26.8638C53.8197 26.7582 53.9338 26.6849 54.0858 26.6456C54.2873 26.593 54.4716 26.6185 54.6391 26.7221C54.8075 26.8292 54.9177 26.9831 54.9708 27.1845C55.0476 27.4804 54.9523 27.7409 54.6838 27.9649Z" fill="black"/>
<path fill-rule="evenodd" clip-rule="evenodd" d="M54.8877 29.7102L53.033 30.0004L52.9478 29.4543L54.802 29.1643L54.7659 28.9308L55.2757 28.8511L55.3117 29.0841L56.1786 28.9488L56.2643 29.4948L55.3975 29.6306L55.4641 30.0556L54.9542 30.1348L54.8877 29.7102Z" fill="black"/>
<path fill-rule="evenodd" clip-rule="evenodd" d="M54.4183 31.5706C54.1888 31.5771 54.0042 31.6437 53.8636 31.771C53.7213 31.901 53.6529 32.0623 53.6585 32.2535C53.6646 32.4587 53.7398 32.6217 53.8844 32.7437C54.0337 32.8656 54.2207 32.9233 54.445 32.9166C54.6689 32.9105 54.8522 32.8419 54.9945 32.7118C55.1334 32.5816 55.1998 32.4156 55.1937 32.2142C55.1883 32.0243 55.1118 31.8678 54.964 31.7442C54.8147 31.6223 54.6324 31.5644 54.4183 31.5706ZM55.6432 32.8478L55.6597 33.4032L53.2675 33.4719L53.2511 32.917L53.502 32.9097C53.2823 32.6881 53.1689 32.4467 53.1609 32.1847C53.1516 31.8535 53.2634 31.577 53.4965 31.3541C53.7339 31.1322 54.0354 31.0166 54.4005 31.0055C54.7591 30.995 55.0609 31.0939 55.306 31.3016C55.5516 31.5093 55.6785 31.7744 55.6881 32.0966C55.6961 32.375 55.5887 32.628 55.3662 32.8559L55.6432 32.8478Z" fill="black"/>
<path fill-rule="evenodd" clip-rule="evenodd" d="M55.6113 34.8115L55.5242 35.3574L55.3058 35.3224C55.399 35.4455 55.4591 35.5471 55.4861 35.6277C55.5139 35.7133 55.5183 35.8161 55.4991 35.936C55.4564 36.2027 55.3066 36.3955 55.0483 36.5133C55.2543 36.7221 55.3337 36.9728 55.2867 37.2654C55.2021 37.7976 54.8366 38.0125 54.1911 37.9089L52.7307 37.6761L52.8182 37.1277L54.1304 37.337C54.3572 37.3734 54.5215 37.3716 54.6245 37.3314C54.7285 37.29 54.7914 37.2046 54.8123 37.0754C54.8362 36.9248 54.7971 36.8061 54.6945 36.7195C54.5927 36.6326 54.416 36.5687 54.165 36.529L52.9449 36.3341L53.0325 35.7862L54.3378 35.9942C54.7581 36.0615 54.988 35.9737 55.0268 35.7309C55.0509 35.577 55.0117 35.456 54.9081 35.3672C54.8046 35.2789 54.6288 35.2148 54.3816 35.1752L53.1609 34.98L53.2481 34.4345L55.6113 34.8115Z" fill="black"/>
<path fill-rule="evenodd" clip-rule="evenodd" d="M52.9068 40.8116C53.1224 40.8896 53.3191 40.8953 53.4972 40.827C53.6771 40.7582 53.8001 40.634 53.8654 40.4532C53.9345 40.2626 53.9242 40.0838 53.835 39.917C53.7454 39.7504 53.5927 39.6279 53.3775 39.5499C53.1663 39.4732 52.9708 39.47 52.7907 39.5384C52.6142 39.6073 52.4915 39.737 52.4225 39.9281C52.357 40.108 52.371 40.2808 52.464 40.4476C52.5561 40.6165 52.7038 40.7378 52.9068 40.8116ZM51.018 38.7293L51.2064 38.2092L54.6805 39.4688L54.4924 39.9883L54.2475 39.8997C54.3782 40.179 54.3963 40.4485 54.3019 40.7088C54.1898 41.0183 53.9833 41.2322 53.6827 41.3495C53.3825 41.4709 53.0601 41.4693 52.7151 41.3437C52.378 41.2216 52.1335 41.0188 51.9817 40.7355C51.8309 40.4544 51.8111 40.1613 51.9215 39.8565C52.017 39.5931 52.2077 39.396 52.4941 39.2641L51.018 38.7293Z" fill="black"/>
<path fill-rule="evenodd" clip-rule="evenodd" d="M51.8385 44.4965C51.9162 44.5462 51.9645 44.6172 51.9853 44.7096C52.0054 44.8026 51.9904 44.8882 51.9402 44.9675C51.8901 45.0457 51.8185 45.0955 51.7256 45.116C51.633 45.136 51.547 45.1211 51.4687 45.0707C51.3884 45.0197 51.3384 44.9477 51.3179 44.8548C51.298 44.7645 51.3135 44.6792 51.3649 44.5988C51.4171 44.5178 51.4885 44.467 51.5787 44.4471C51.669 44.4272 51.7559 44.4438 51.8385 44.4965Z" fill="black"/>
<path fill-rule="evenodd" clip-rule="evenodd" d="M48.7858 49.1646L48.3617 49.5198L48.22 49.3496C48.2095 49.5032 48.1885 49.6198 48.1559 49.6983C48.1206 49.7811 48.0565 49.8616 47.9637 49.9394C47.7563 50.113 47.5168 50.1594 47.2448 50.0795C47.2629 50.3716 47.1581 50.6131 46.9308 50.8037C46.5176 51.1493 46.1011 51.0717 45.6816 50.5705L44.7323 49.436L45.158 49.0795L46.0112 50.099C46.1584 50.2749 46.2839 50.3812 46.3879 50.4187C46.4936 50.4557 46.5967 50.4324 46.6975 50.3486C46.8144 50.2507 46.8624 50.1354 46.8426 50.0029C46.8222 49.87 46.7305 49.7066 46.5677 49.5118L45.7742 48.564L46.2004 48.2074L47.0486 49.2215C47.3221 49.548 47.553 49.6327 47.7414 49.4747C47.8606 49.3749 47.9105 49.2577 47.8902 49.1229C47.8702 48.9876 47.7799 48.824 47.6191 48.632L46.8261 47.684L47.2498 47.3294L48.7858 49.1646Z" fill="black"/>
<path fill-rule="evenodd" clip-rule="evenodd" d="M45.7134 52.7817C45.7638 52.864 45.7778 52.9532 45.7548 53.0506C45.7316 53.1475 45.6783 53.2218 45.5944 53.2731C45.5093 53.3256 45.4183 53.34 45.3214 53.3168C45.2253 53.2954 45.1515 53.242 45.099 53.1569C45.0465 53.0718 45.0321 52.9808 45.0548 52.884C45.0767 52.7879 45.13 52.7136 45.2151 52.6611C45.3002 52.609 45.3912 52.5941 45.4881 52.6173C45.585 52.6405 45.66 52.695 45.7134 52.7817ZM44.6493 52.2673L43.3947 50.2292L43.8658 49.9392L45.12 51.9775L44.6493 52.2673Z" fill="black"/>
<path fill-rule="evenodd" clip-rule="evenodd" d="M42.1172 53.1366L42.4215 52.718C42.5509 52.8191 42.6633 52.8462 42.7591 52.7997C42.8047 52.7774 42.8367 52.7433 42.8543 52.6974C42.8719 52.6516 42.8691 52.6048 42.8464 52.5575C42.8063 52.4752 42.6704 52.4399 42.4395 52.4523C42.1209 52.4672 41.8927 52.449 41.7546 52.3978C41.6168 52.346 41.5082 52.2396 41.4294 52.0775C41.3284 51.8698 41.3206 51.659 41.4054 51.4445C41.4899 51.2391 41.6371 51.0859 41.8477 50.9832C42.2086 50.8074 42.5501 50.8591 42.8713 51.138L42.5429 51.5416C42.434 51.4667 42.3572 51.4229 42.3125 51.4102C42.2247 51.3836 42.139 51.3907 42.055 51.4317C41.8871 51.5136 41.8404 51.6305 41.9148 51.7842C41.9582 51.8723 42.0629 51.9233 42.2299 51.9368C42.292 51.9375 42.3539 51.9373 42.4158 51.9367C42.477 51.9357 42.5398 51.9352 42.6033 51.9356C42.7823 51.9361 42.9185 51.9567 43.0114 51.9991C43.1302 52.052 43.2245 52.1495 43.2929 52.291C43.384 52.478 43.3954 52.6636 43.3268 52.8485C43.2551 53.0345 43.1256 53.1728 42.9387 53.2643C42.6634 53.3979 42.3894 53.3559 42.1172 53.1366Z" fill="black"/>
<path fill-rule="evenodd" clip-rule="evenodd" d="M39.6867 54.0555L40.0384 53.6753C40.1548 53.7911 40.2631 53.8314 40.3639 53.7959C40.4118 53.7797 40.4475 53.7494 40.4704 53.7061C40.4936 53.6622 40.496 53.6156 40.4789 53.5661C40.4485 53.4792 40.3181 53.429 40.0874 53.4137C39.7691 53.3914 39.5441 53.3466 39.4131 53.2792C39.2826 53.2122 39.1872 53.0938 39.1281 52.9234C39.0519 52.7053 39.0686 52.4949 39.178 52.2917C39.286 52.0982 39.4504 51.9626 39.6717 51.8857C40.0505 51.7531 40.3834 51.8448 40.67 52.159L40.2963 52.5209C40.197 52.4344 40.1257 52.3818 40.083 52.364C39.999 52.3275 39.9129 52.3244 39.8246 52.3551C39.6486 52.4164 39.5884 52.5275 39.6448 52.6886C39.6766 52.7813 39.7752 52.8445 39.9395 52.8769C40.001 52.8853 40.0627 52.8922 40.1239 52.8987C40.185 52.9052 40.2471 52.912 40.3105 52.9199C40.4881 52.9409 40.6206 52.9779 40.7083 53.0305C40.82 53.0976 40.9021 53.205 40.9538 53.3536C41.0222 53.55 41.0116 53.7361 40.922 53.9112C40.8289 54.0876 40.6843 54.2098 40.488 54.2786C40.1985 54.3792 39.9316 54.3051 39.6867 54.0555Z" fill="black"/>
<path fill-rule="evenodd" clip-rule="evenodd" d="M38.1308 54.8917L37.5406 52.5724L38.2866 52.3908L38.8769 54.71L38.1308 54.8917ZM39.2338 55.6467C39.2581 55.7407 39.2312 55.8333 39.1531 55.9245C39.0756 56.0157 38.9705 56.0775 38.8378 56.11C38.7031 56.1425 38.5792 56.1369 38.467 56.0919C38.3551 56.0477 38.2862 55.9782 38.2618 55.881C38.2368 55.784 38.2633 55.69 38.3413 55.5983C38.4169 55.5076 38.522 55.4458 38.6567 55.4133C38.7913 55.3803 38.9154 55.3864 39.0276 55.4319C39.1404 55.4767 39.2092 55.5487 39.2338 55.6467Z" fill="black"/>
<path fill-rule="evenodd" clip-rule="evenodd" d="M36.8317 55.1748L36.2805 55.2438L36.2533 55.0243C36.0854 55.2387 35.8811 55.3605 35.6401 55.3903C35.364 55.4249 35.1378 55.3644 34.9618 55.2102C34.81 55.0791 34.713 54.8461 34.6712 54.5106L34.4897 53.0553L35.041 52.9867L35.2063 54.3129C35.2355 54.547 35.2884 54.7048 35.3644 54.7858C35.439 54.8691 35.5603 54.9002 35.7278 54.8794C35.9098 54.8566 36.0313 54.7807 36.0929 54.651C36.1529 54.5226 36.1641 54.3106 36.1272 54.0148L35.9843 52.8689L36.5356 52.8003L36.8317 55.1748Z" fill="black"/>
<path fill-rule="evenodd" clip-rule="evenodd" d="M31.6965 54.2423C31.6891 54.4749 31.7452 54.6629 31.865 54.8057C31.9867 54.9523 32.1452 55.0288 32.3416 55.0356C32.5511 55.0422 32.7194 54.97 32.8455 54.8183C32.9598 54.683 33.0205 54.5047 33.0276 54.2833C33.0351 54.0656 32.986 53.8854 32.8808 53.743C32.7663 53.5868 32.6033 53.5052 32.3923 53.498C32.1809 53.4914 32.0114 53.5625 31.8836 53.7127C31.766 53.8478 31.7039 54.0246 31.6965 54.2423ZM31.2034 53.0908C31.2072 52.9772 31.2139 52.878 31.2242 52.7925C31.2344 52.7066 31.2471 52.6314 31.2621 52.5664C31.3072 52.3874 31.3894 52.2351 31.5083 52.1095C31.7324 51.8681 32.0336 51.7531 32.4121 51.7657C32.7314 51.776 32.9912 51.8705 33.1916 52.0491C33.3989 52.2332 33.5136 52.4818 33.5362 52.7954L32.9814 52.7775C32.9639 52.659 32.9314 52.567 32.8843 52.5013C32.7748 52.3486 32.6104 52.2687 32.3909 52.2617C31.9864 52.2485 31.776 52.49 31.7598 52.9853L31.7488 53.3198C31.9756 53.1026 32.2324 52.9988 32.5186 53.0078C32.8446 53.0189 33.1076 53.1451 33.3078 53.3881C33.5096 53.634 33.6043 53.9361 33.5927 54.2946C33.5812 54.6433 33.4742 54.9366 33.2713 55.1741C33.0533 55.4258 32.7727 55.5464 32.4287 55.5348C32.1274 55.525 31.8807 55.4045 31.688 55.1738L31.6795 55.4439L31.127 55.4259L31.2034 53.0908Z" fill="black"/>
<path fill-rule="evenodd" clip-rule="evenodd" d="M26.4721 54.0868L26.9774 53.9734C27.0075 54.1345 27.0741 54.2295 27.1769 54.2579C27.226 54.2714 27.2723 54.2664 27.3158 54.2437C27.3594 54.2209 27.3881 54.1843 27.4023 54.134C27.4264 54.0454 27.348 53.9296 27.1665 53.7861C26.9171 53.5864 26.7581 53.4222 26.6882 53.2923C26.6184 53.1628 26.6073 53.0109 26.6551 52.8379C26.7168 52.6148 26.8499 52.4511 27.0557 52.3459C27.2542 52.2479 27.4665 52.2299 27.6921 52.2919C28.0791 52.3984 28.3011 52.6626 28.3586 53.0846L27.8455 53.1702C27.8132 53.0424 27.784 52.9585 27.7589 52.9192C27.711 52.8416 27.6418 52.79 27.5516 52.7657C27.3716 52.7157 27.2591 52.7736 27.2138 52.9376C27.1878 53.0323 27.2328 53.1398 27.3494 53.2603C27.3956 53.3017 27.4422 53.3431 27.489 53.383C27.5358 53.4229 27.5828 53.4641 27.631 53.5061C27.7648 53.624 27.8532 53.7304 27.8954 53.8235C27.9495 53.942 27.9557 54.0767 27.9138 54.2286C27.8587 54.4291 27.7443 54.5762 27.5709 54.6693C27.3941 54.7618 27.2055 54.7804 27.005 54.7253C26.7097 54.6442 26.5319 54.4312 26.4721 54.0868Z" fill="black"/>
<path fill-rule="evenodd" clip-rule="evenodd" d="M24.8612 53.3905L25.5392 51.6396L26.0548 51.8393L25.3768 53.5903L25.5966 53.6757L25.4103 54.1563L25.1902 54.0714L24.8738 54.8891L24.3583 54.6898L24.6747 53.8721L24.2739 53.7162L24.4601 53.2352L24.8612 53.3905Z" fill="black"/>
<path fill-rule="evenodd" clip-rule="evenodd" d="M23.4918 52.0517C23.6005 51.8496 23.6353 51.6566 23.5957 51.4709C23.5543 51.2832 23.4488 51.1433 23.2803 51.0521C23.1002 50.9552 22.9211 50.9383 22.7429 51.002C22.5629 51.0703 22.4194 51.2035 22.3129 51.4008C22.2059 51.5983 22.1734 51.7913 22.2155 51.9797C22.2587 52.165 22.3686 52.3054 22.5461 52.401C22.7135 52.4915 22.8876 52.5034 23.0681 52.4373C23.2487 52.3693 23.3898 52.2405 23.4918 52.0517ZM21.771 52.4747L21.2824 52.2109L22.4198 50.1051L22.9084 50.3688L22.7894 50.5893C23.0908 50.5103 23.3567 50.533 23.5872 50.6572C23.8786 50.8148 24.0623 51.0494 24.139 51.3632C24.2121 51.6801 24.1618 51.9988 23.988 52.3201C23.8177 52.6355 23.5812 52.8479 23.2785 52.9563C22.9763 53.0645 22.6829 53.0426 22.3991 52.8889C22.1541 52.7571 21.9888 52.5371 21.903 52.2306L21.771 52.4747Z" fill="black"/>
<path fill-rule="evenodd" clip-rule="evenodd" d="M20.0888 51.469L19.6587 51.1213L19.7979 50.9492C19.6451 50.969 19.5272 50.9704 19.4435 50.9536C19.3556 50.9349 19.2643 50.8874 19.1702 50.811C18.9596 50.6413 18.8679 50.4151 18.8938 50.1326C18.6105 50.2069 18.3539 50.1511 18.123 49.9645C17.7044 49.6254 17.7 49.202 18.1108 48.6935L19.0412 47.5435L19.473 47.8926L18.637 48.9265C18.4931 49.1048 18.4126 49.2483 18.396 49.3573C18.3798 49.4681 18.4229 49.5652 18.5246 49.6478C18.6434 49.7434 18.7657 49.7687 18.8918 49.7231C19.018 49.678 19.1609 49.5568 19.3205 49.3594L20.0977 48.3982L20.5295 48.7474L19.6981 49.775C19.4305 50.1063 19.3921 50.349 19.5828 50.5036C19.7041 50.6019 19.8288 50.6275 19.9573 50.5824C20.0862 50.5366 20.2289 50.4164 20.3866 50.2213L21.1638 49.2601L21.5939 49.6078L20.0888 51.469Z" fill="black"/>
<path fill-rule="evenodd" clip-rule="evenodd" d="M16.2335 46.131C16.0583 46.2789 15.9558 46.4472 15.9264 46.6352C15.8961 46.8253 15.943 46.9938 16.067 47.1403C16.1981 47.2955 16.358 47.376 16.5469 47.3807C16.736 47.3864 16.9182 47.3152 17.0934 47.1672C17.2646 47.0221 17.3654 46.8547 17.3952 46.6642C17.4237 46.4769 17.3726 46.306 17.2414 46.1508C17.1175 46.0043 16.9605 45.9303 16.7698 45.9283C16.5773 45.9239 16.3984 45.991 16.2335 46.131ZM18.9797 45.5311L19.3369 45.9534L16.5143 48.3394L16.1576 47.917L16.3564 47.749C16.0495 47.7232 15.8066 47.6046 15.6278 47.3933C15.4153 47.1419 15.333 46.8566 15.3804 46.5372C15.4247 46.2166 15.5872 45.9383 15.8671 45.7009C16.1414 45.4694 16.4388 45.3585 16.7603 45.3679C17.0789 45.3774 17.3428 45.5057 17.5526 45.7535C17.7331 45.9678 17.8093 46.2309 17.7809 46.545L18.9797 45.5311Z" fill="black"/>
<path fill-rule="evenodd" clip-rule="evenodd" d="M13.5687 43.3605C13.4873 43.4027 13.401 43.4091 13.3104 43.3807C13.2203 43.3522 13.1532 43.2958 13.1107 43.2132C13.0676 43.1301 13.0603 43.0436 13.0891 42.9529C13.118 42.8626 13.1739 42.7957 13.2565 42.7527C13.3409 42.7093 13.4282 42.7013 13.519 42.7306C13.6071 42.7582 13.6732 42.8147 13.7171 42.899C13.7613 42.985 13.7696 43.0718 13.7416 43.16C13.7137 43.2486 13.6558 43.315 13.5687 43.3605Z" fill="black"/>
<path fill-rule="evenodd" clip-rule="evenodd" d="M11.0586 38.385L10.9629 37.8404L11.1808 37.8019C11.0526 37.7164 10.9627 37.64 10.9109 37.5726C10.8569 37.501 10.8192 37.405 10.7982 37.2855C10.7513 37.0193 10.8304 36.7884 11.036 36.593C10.7734 36.4625 10.6162 36.2514 10.5653 35.9594C10.4719 35.4288 10.7474 35.107 11.3907 34.9937L12.8476 34.7376L12.9438 35.2844L11.6345 35.5149C11.4089 35.5543 11.2542 35.6102 11.1701 35.6812C11.0845 35.754 11.0534 35.8551 11.0763 35.9846C11.1025 36.1349 11.1781 36.2344 11.3029 36.283C11.4282 36.3315 11.6156 36.3338 11.8656 36.2902L13.0829 36.0758L13.1792 36.6231L11.877 36.8519C11.4573 36.9253 11.2689 37.0834 11.3116 37.3252C11.3385 37.4786 11.4155 37.5801 11.5421 37.6302C11.6691 37.6802 11.8558 37.6836 12.1027 37.6402L13.32 37.4263L13.4157 37.9709L11.0586 38.385Z" fill="black"/>
<mask id="mask0_2023_3495" style="mask-type:alpha" maskUnits="userSpaceOnUse" x="9" y="32" width="4" height="3">
<path fill-rule="evenodd" clip-rule="evenodd" d="M9.02295 33.2964L12.6611 32.4565L12.9521 33.7172L9.31401 34.5571L9.02295 33.2964Z" fill="white"/>
</mask>
<g mask="url(#mask0_2023_3495)">
<path fill-rule="evenodd" clip-rule="evenodd" d="M10.4366 33.2609L12.8285 33.1885L12.8453 33.7414L10.4534 33.8134L10.4366 33.2609ZM9.46291 33.9269C9.36632 33.9295 9.28179 33.8969 9.20923 33.8286C9.13622 33.7605 9.09867 33.6772 9.09578 33.5792C9.09282 33.479 9.12556 33.393 9.19379 33.3204C9.26057 33.2477 9.34348 33.2103 9.44364 33.2069C9.54345 33.204 9.62986 33.2367 9.70198 33.305C9.77468 33.3718 9.81223 33.4551 9.81553 33.5549C9.81839 33.6547 9.78576 33.7411 9.71753 33.8136C9.6492 33.8858 9.56406 33.9237 9.46291 33.9269Z" fill="black"/>
</g>
<path fill-rule="evenodd" clip-rule="evenodd" d="M10.9449 30.6339L11.1564 31.1067C11.0044 31.1681 10.9248 31.2522 10.9174 31.3586C10.914 31.4092 10.9277 31.4539 10.9585 31.4919C10.9899 31.5302 11.0313 31.5511 11.0837 31.5545C11.1754 31.561 11.273 31.461 11.3775 31.2548C11.5236 30.9708 11.6533 30.7821 11.7664 30.688C11.8794 30.5938 12.0258 30.5529 12.2057 30.5654C12.4361 30.5812 12.6231 30.6794 12.7666 30.8599C12.9024 31.0351 12.9623 31.2396 12.9462 31.4729C12.919 31.8736 12.7039 32.1439 12.3023 32.2835L12.116 31.7979C12.2351 31.7403 12.3112 31.6956 12.3446 31.6634C12.4113 31.6006 12.4478 31.5227 12.4545 31.4296C12.4669 31.2432 12.3886 31.1443 12.2183 31.1325C12.1205 31.1259 12.0239 31.1914 11.929 31.3293C11.8977 31.383 11.867 31.4371 11.8371 31.4904C11.8068 31.5444 11.7762 31.5989 11.7443 31.6541C11.6552 31.809 11.5688 31.9167 11.4858 31.9763C11.3805 32.0527 11.2491 32.0858 11.0922 32.0751C10.8847 32.061 10.7181 31.9779 10.5921 31.8267C10.4666 31.6716 10.4107 31.4906 10.4253 31.283C10.4462 30.9772 10.6194 30.7612 10.9449 30.6339Z" fill="black"/>
<path fill-rule="evenodd" clip-rule="evenodd" d="M11.3557 28.071L11.5102 28.5649C11.3518 28.609 11.2627 28.6826 11.2432 28.7876C11.2336 28.8372 11.2423 28.8831 11.2687 28.9244C11.2948 28.9663 11.3337 28.9921 11.3852 29.0018C11.4754 29.0185 11.5843 28.9309 11.7127 28.7384C11.8906 28.4738 12.0417 28.3009 12.165 28.2208C12.2883 28.1407 12.4389 28.1176 12.616 28.1509C12.8429 28.1939 13.0169 28.3133 13.1382 28.5092C13.2525 28.6993 13.2879 28.9095 13.2448 29.1396C13.1705 29.5338 12.9252 29.7768 12.5097 29.8685L12.3821 29.3646C12.5069 29.3212 12.5879 29.2856 12.6247 29.2579C12.6984 29.2033 12.7439 29.1299 12.7612 29.0381C12.7959 28.8545 12.7293 28.7473 12.5619 28.7155C12.4652 28.6975 12.3617 28.7514 12.2513 28.8774C12.2135 28.927 12.1766 28.9768 12.1407 29.0264C12.1048 29.0765 12.0676 29.1269 12.0296 29.1779C11.9228 29.3213 11.8244 29.4178 11.735 29.4675C11.6215 29.5313 11.4874 29.5481 11.3329 29.5195C11.1282 29.4808 10.9728 29.3792 10.8656 29.2138C10.7586 29.0455 10.7249 28.8589 10.7632 28.6543C10.82 28.3533 11.0174 28.1589 11.3557 28.071Z" fill="black"/>
<path fill-rule="evenodd" clip-rule="evenodd" d="M11.4235 26.274L13.7204 26.9471L13.5644 27.4775L11.268 26.8043L11.4235 26.274ZM10.2884 26.6048C10.1957 26.5773 10.1252 26.5204 10.0778 26.4327C10.0299 26.3452 10.0197 26.2546 10.0473 26.1604C10.0753 26.0643 10.1335 25.9926 10.2205 25.9448C10.3065 25.8963 10.3972 25.8862 10.4933 25.9142C10.5891 25.9428 10.6611 26.0004 10.7085 26.0876C10.7569 26.1736 10.7672 26.2646 10.739 26.3603C10.711 26.4565 10.6529 26.5281 10.5658 26.5759C10.4783 26.6238 10.386 26.6329 10.2884 26.6048Z" fill="black"/>
<path fill-rule="evenodd" clip-rule="evenodd" d="M11.8169 25.0363L12.0332 24.5248L12.2371 24.6111C12.136 24.3583 12.1327 24.1201 12.2272 23.8969C12.3356 23.6404 12.5007 23.4751 12.7228 23.3998C12.9124 23.3345 13.1626 23.3668 13.4734 23.4989L14.8245 24.0701L14.6079 24.5816L13.3768 24.0606C13.1598 23.9689 12.9972 23.9356 12.8884 23.9607C12.7787 23.9837 12.6913 24.0729 12.6258 24.2284C12.554 24.3975 12.5594 24.5409 12.6407 24.6592C12.722 24.7752 12.8994 24.891 13.1737 25.0071L14.2377 25.4572L14.0211 25.9688L11.8169 25.0363Z" fill="black"/>
<path fill-rule="evenodd" clip-rule="evenodd" d="M15.1985 21.0484C15.0011 20.9259 14.8103 20.8803 14.6262 20.9125C14.4387 20.9445 14.2931 21.0438 14.1895 21.211C14.0784 21.3887 14.057 21.5707 14.1256 21.7558C14.1856 21.9222 14.3094 22.0641 14.4974 22.1808C14.6826 22.2958 14.8632 22.3437 15.0393 22.3237C15.2317 22.3028 15.3841 22.2024 15.4953 22.0232C15.607 21.8438 15.63 21.661 15.5637 21.4754C15.5053 21.3058 15.3837 21.1634 15.1985 21.0484ZM16.4431 21.1973C16.539 21.2569 16.6218 21.3124 16.691 21.364C16.7602 21.4157 16.8189 21.4646 16.8679 21.5101C17 21.6387 17.0907 21.7859 17.1398 21.9515C17.2374 22.2666 17.186 22.585 16.9865 22.9062C16.8177 23.1776 16.6056 23.3552 16.3509 23.4398C16.088 23.5273 15.8152 23.5025 15.5322 23.365L15.8253 22.8935C15.9369 22.9377 16.0326 22.9556 16.1129 22.9478C16.2997 22.9291 16.4516 22.8264 16.5673 22.6401C16.781 22.2968 16.6772 21.9936 16.2557 21.7317L15.9717 21.555C16.0464 21.8603 16.0081 22.1339 15.8569 22.3778C15.6847 22.6546 15.4433 22.8193 15.1332 22.8711C14.8198 22.9229 14.5104 22.8539 14.2057 22.6646C13.9092 22.4805 13.7093 22.2412 13.6047 21.9465C13.4954 21.6318 13.532 21.3285 13.7134 21.0364C13.8726 20.7804 14.1005 20.6268 14.3962 20.5755L14.1666 20.4332L14.4591 19.9633L16.4431 21.1973Z" fill="black"/>
<path fill-rule="evenodd" clip-rule="evenodd" d="M17.9354 16.6L17.782 17.0946C17.6273 17.0407 17.5118 17.0509 17.4362 17.1261C17.4003 17.1616 17.3811 17.2046 17.3792 17.2534C17.3774 17.3026 17.3949 17.346 17.4317 17.383C17.4961 17.4485 17.6359 17.4378 17.8508 17.352C18.1478 17.2351 18.3695 17.1787 18.5169 17.1827C18.6639 17.1868 18.8007 17.2529 18.9275 17.3809C19.0902 17.5448 19.1659 17.7423 19.1546 17.9722C19.1409 18.1936 19.0508 18.3868 18.8847 18.5519C18.5996 18.8341 18.2601 18.8951 17.8654 18.7351L18.0467 18.2472C18.1738 18.2831 18.2606 18.2992 18.3071 18.2974C18.3984 18.2942 18.4773 18.26 18.5438 18.1939C18.6763 18.0624 18.6829 17.9365 18.5625 17.8154C18.4933 17.7455 18.3778 17.7313 18.2154 17.7721C18.156 17.7914 18.0978 17.8119 18.0396 17.8324C17.9815 17.8529 17.9224 17.8735 17.8623 17.894C17.6929 17.9514 17.5571 17.9752 17.4553 17.9654C17.3257 17.9531 17.2053 17.8912 17.0946 17.7797C16.9482 17.6318 16.878 17.4597 16.8832 17.2627C16.8908 17.0638 16.9687 16.8908 17.1165 16.744C17.3339 16.5286 17.6069 16.4806 17.9354 16.6Z" fill="black"/>
<path fill-rule="evenodd" clip-rule="evenodd" d="M19.3325 15.5569L20.5135 17.0158L20.084 17.3638L18.903 15.9049L18.7193 16.053L18.3949 15.6522L18.578 15.5039L18.0266 14.8217L18.4562 14.4742L19.008 15.1558L19.3422 14.8852L19.6668 15.2863L19.3325 15.5569Z" fill="black"/>
<path fill-rule="evenodd" clip-rule="evenodd" d="M21.1805 15.0313C21.3011 15.2265 21.4514 15.3528 21.6316 15.4112C21.8159 15.4691 21.9893 15.4474 22.1523 15.3464C22.3262 15.2391 22.4299 15.0926 22.4634 14.906C22.4941 14.7158 22.4506 14.5254 22.3328 14.3343C22.2149 14.1432 22.0637 14.0189 21.8799 13.9609C21.6978 13.9062 21.521 13.9315 21.3496 14.0373C21.1878 14.1376 21.0906 14.2821 21.0574 14.4719C21.0268 14.6625 21.0679 14.8488 21.1805 15.0313ZM21.6722 13.3299L22.1444 13.0383L23.4019 15.0748L22.9298 15.3664L22.7979 15.1532C22.7161 15.4538 22.5635 15.6731 22.3404 15.811C22.0589 15.9849 21.7634 16.0268 21.4539 15.9368C21.1428 15.8419 20.8916 15.6389 20.6997 15.3282C20.5114 15.0229 20.4453 14.7123 20.5023 14.3958C20.5594 14.0798 20.7249 13.8369 20.9994 13.6674C21.2366 13.5211 21.509 13.4873 21.8179 13.5662L21.6722 13.3299Z" fill="black"/>
<path fill-rule="evenodd" clip-rule="evenodd" d="M23.391 12.3712L23.9074 12.1736L23.9864 12.3797C24.0457 12.2379 24.1036 12.1348 24.1602 12.071C24.2204 12.0041 24.3071 11.9489 24.4202 11.9059C24.6726 11.8091 24.9146 11.8429 25.1458 12.0064C25.2234 11.7242 25.4006 11.5297 25.6775 11.4236C26.1809 11.2308 26.5498 11.4396 26.7832 12.05L27.3129 13.4315L26.7939 13.6298L26.3186 12.3887C26.2363 12.1744 26.1525 12.0332 26.0662 11.9644C25.9782 11.8945 25.8728 11.8832 25.7508 11.9301C25.6084 11.9846 25.5253 12.078 25.5012 12.2098C25.4772 12.3417 25.5105 12.5265 25.6018 12.7632L26.0439 13.9175L25.5254 14.1161L25.0525 12.8815C24.8997 12.4839 24.7091 12.3293 24.4796 12.4171C24.3342 12.4727 24.2491 12.5679 24.2242 12.7019C24.1992 12.8358 24.2318 13.0198 24.3212 13.2541L24.7636 14.4079L24.2473 14.606L23.391 12.3712Z" fill="black"/>
<mask id="mask1_2023_3495" style="mask-type:alpha" maskUnits="userSpaceOnUse" x="27" y="10" width="5" height="5">
<path fill-rule="evenodd" clip-rule="evenodd" d="M27.7065 10.8813L30.1909 10.3078L31.0285 13.9359L28.5442 14.5095L27.7065 10.8813Z" fill="white"/>
</mask>
<g mask="url(#mask1_2023_3495)">
<path fill-rule="evenodd" clip-rule="evenodd" d="M29.9307 11.7063C29.8898 11.4805 29.7951 11.308 29.6468 11.1882C29.4968 11.0675 29.3276 11.0239 29.1387 11.0581C28.9387 11.0944 28.7896 11.1932 28.6907 11.3545C28.5917 11.5154 28.5627 11.7089 28.6034 11.9343C28.6436 12.1551 28.7385 12.3261 28.8889 12.4468C29.0369 12.5652 29.2106 12.6059 29.4103 12.5697C29.5991 12.5355 29.7419 12.4363 29.8383 12.2722C29.9384 12.1078 29.9694 11.9189 29.9307 11.7063ZM29.0822 14.3852L28.5382 14.4836L27.8786 10.8474L28.4225 10.7491L28.469 11.005C28.6448 10.7518 28.8686 10.6006 29.1408 10.5513C29.4648 10.4925 29.7535 10.5634 30.0063 10.7637C30.2619 10.962 30.4223 11.2419 30.4878 11.6028C30.5519 11.9557 30.4998 12.2691 30.3311 12.5428C30.1643 12.8147 29.921 12.9793 29.602 13.037C29.3262 13.0871 29.0599 13.0218 28.802 12.84L29.0822 14.3852Z" fill="black"/>
</g>
<path fill-rule="evenodd" clip-rule="evenodd" d="M33.667 10.7764C33.6712 10.6849 33.7081 10.6068 33.7783 10.5428C33.848 10.4788 33.9298 10.4486 34.0227 10.4525C34.1162 10.4568 34.1952 10.4939 34.2592 10.5637C34.3233 10.6338 34.3534 10.7156 34.3491 10.8086C34.3452 10.9035 34.3082 10.9833 34.238 11.0474C34.1699 11.1101 34.0883 11.1393 33.9934 11.1349C33.8967 11.1309 33.8174 11.0943 33.7542 11.0263C33.692 10.958 33.6629 10.8746 33.667 10.7764Z" fill="black"/>
<circle opacity="0.396077" cx="32.9085" cy="33.2343" r="26.75" transform="rotate(-13 32.9085 33.2343)" stroke="black" stroke-width="0.5"/>
<circle opacity="0.401226" cx="33.2366" cy="33.1582" r="16.9625" transform="rotate(-13 33.2366 33.1582)" stroke="black" stroke-width="0.5"/>
</g>
</svg>
