<svg width="13" height="18" viewBox="0 0 13 18" fill="none" xmlns="http://www.w3.org/2000/svg">
<path d="M2.40381 17.7827C1.73975 17.7827 1.23617 17.6056 0.893066 17.2515C0.555501 16.9028 0.386719 16.366 0.386719 15.6411V9.47363C0.386719 8.75977 0.555501 8.22852 0.893066 7.87988C1.23617 7.52572 1.73975 7.34863 2.40381 7.34863H10.4971C11.1611 7.34863 11.6619 7.52572 11.9995 7.87988C12.3426 8.22852 12.5142 8.75977 12.5142 9.47363V15.6411C12.5142 16.366 12.3426 16.9028 11.9995 17.2515C11.6619 17.6056 11.1611 17.7827 10.4971 17.7827H2.40381ZM2.98486 15.8818H9.91602C10.082 15.8818 10.2065 15.8348 10.2896 15.7407C10.3726 15.6466 10.4141 15.5083 10.4141 15.3257V9.79736C10.4141 9.60921 10.3726 9.47087 10.2896 9.38232C10.2065 9.29378 10.082 9.24951 9.91602 9.24951H2.98486C2.82438 9.24951 2.69987 9.29378 2.61133 9.38232C2.52832 9.47087 2.48682 9.60921 2.48682 9.79736V15.3257C2.48682 15.5083 2.52832 15.6466 2.61133 15.7407C2.69987 15.8348 2.82438 15.8818 2.98486 15.8818ZM2.02197 8.14551V5.46436C2.02197 4.4738 2.22119 3.63265 2.61963 2.94092C3.0236 2.24365 3.56038 1.7124 4.22998 1.34717C4.89958 0.981934 5.63835 0.799316 6.44629 0.799316C7.25977 0.799316 8.0013 0.981934 8.6709 1.34717C9.34049 1.7124 9.87451 2.24365 10.2729 2.94092C10.6769 3.63265 10.8789 4.4738 10.8789 5.46436V8.14551H8.91162V5.36475C8.91162 4.80583 8.80094 4.32715 8.57959 3.92871C8.35824 3.53027 8.05941 3.22591 7.68311 3.01562C7.31234 2.80534 6.90007 2.7002 6.44629 2.7002C5.99251 2.7002 5.58024 2.80534 5.20947 3.01562C4.8387 3.22591 4.54264 3.53027 4.32129 3.92871C4.10547 4.32715 3.99756 4.80583 3.99756 5.36475V8.14551H2.02197Z" fill="#313131"/>
</svg>
